<svg width="128" height="128" viewBox="0 0 128 128" fill="none" xmlns="http://www.w3.org/2000/svg">
<rect width="128" height="128" rx="24" fill="white"/>
<path d="M60.2425 71.6873C60.0322 71.555 59.8273 71.4109 59.6288 71.2563L60.2425 71.6873Z" fill="#FF005F"/>
<path d="M68.0108 71.2563C67.8123 71.4109 67.6074 71.555 67.3971 71.6873L68.0108 71.2563Z" fill="#FF005F"/>
<path d="M69.3901 73.8955C69.7958 73.6972 70.1887 73.4783 70.5678 73.2399L69.3901 73.8955ZM56.8176 73.2399C57.1968 73.4783 57.5897 73.6972 57.9954 73.8955L56.8176 73.2399Z" fill="#FF005F"/>
<path d="M76.4093 62.8078C76.4093 55.9598 70.716 50.4084 63.6931 50.4084C56.6702 50.4084 50.9769 55.9598 50.9769 62.8078C50.9769 62.8518 50.9772 62.8954 50.9776 62.9391H50.9321V69.965L56.818 73.2403L57.9958 73.8959L63.5921 77.01L63.6931 77.0661L63.7941 77.01L69.3904 73.8959L70.5682 73.2403L76.4093 69.965V62.9391H76.4086C76.4089 62.8954 76.4093 62.8518 76.4093 62.8078ZM73.6069 62.9391C73.6022 63.209 73.5857 63.4762 73.5584 63.7402V68.3917L68.9816 70.9385C68.7311 71.0931 68.4726 71.2372 68.2072 71.3695C68.2066 71.3699 68.2062 71.3702 68.2056 71.3702L63.6931 73.8815L59.1806 71.3702C59.1799 71.3702 59.1796 71.3699 59.1789 71.3695C58.9136 71.2372 58.655 71.0931 58.4045 70.9385L53.8277 68.3917V63.7402C53.8005 63.4762 53.784 63.209 53.7793 62.9391C53.7779 62.879 53.7772 62.8189 53.7772 62.7585C53.7772 57.4185 58.2166 53.0897 63.6931 53.0897C69.1695 53.0897 73.6089 57.4185 73.6089 62.7585C73.6089 62.8189 73.6083 62.879 73.6069 62.9391Z" fill="#FF005F"/>
<path d="M68.4215 64.1107C65.9902 63.8828 64.7161 64.5559 64.7161 62.6819C64.1868 62.6819 63.7757 62.6819 63.7037 62.6819C63.6963 62.6819 63.6926 62.6819 63.6926 62.6819C63.6205 62.6819 63.2094 62.6819 62.6801 62.6819C62.6801 64.5555 61.406 63.8828 58.9747 64.1107C56.5434 64.3385 55.8851 66.9785 55.8851 66.9785L57.6262 67.9309C57.6262 67.9309 57.7643 66.7093 59.3249 66.6886C60.8825 66.6679 62.7468 66.8948 63.698 65.5677C64.6491 66.8944 66.5134 66.6679 68.071 66.6886C69.6316 66.7093 69.7697 67.9309 69.7697 67.9309L71.5108 66.9785C71.5111 66.9785 70.8528 64.3385 68.4215 64.1107Z" fill="#FF005F"/>
<path d="M103.066 63.8906C103.066 85.1168 85.574 102.397 63.9048 102.397C42.2356 102.397 24.7432 85.1168 24.7432 63.8906C24.7432 42.6645 42.2356 25.3839 63.9048 25.3839C85.574 25.3839 103.066 42.6645 103.066 63.8906Z" stroke="#FF005F" stroke-width="5.48645"/>
<mask id="path-8-inside-1_2601_8528" fill="white">
<path d="M39.4934 50.6576C37.137 54.8698 35.9467 59.6177 36.0419 64.4254C36.1371 69.2331 37.5145 73.9317 40.0359 78.0503C42.5574 82.1688 46.1343 85.5626 50.4082 87.8913C54.6821 90.2201 59.5027 91.4021 64.387 91.3188C69.2712 91.2355 74.0474 89.8899 78.2368 87.4168C82.4261 84.9437 85.8815 81.4301 88.2566 77.228C90.6316 73.026 91.8428 68.2833 91.7688 63.4752C91.6948 58.6671 90.3382 53.9626 87.835 49.8334L87.1473 50.2373C89.5786 54.2479 90.8962 58.8172 90.9681 63.4871C91.0399 68.157 89.8635 72.7635 87.5567 76.8448C85.25 80.926 81.8939 84.3387 77.8249 86.7407C73.7559 89.1428 69.117 90.4497 64.3731 90.5306C59.6292 90.6115 54.9471 89.4635 50.7961 87.2016C46.645 84.9398 43.1709 81.6435 40.7219 77.6434C38.2729 73.6432 36.9351 69.0796 36.8426 64.41C36.7501 59.7405 37.9062 55.129 40.1949 51.0379L39.4934 50.6576Z"/>
</mask>
<path d="M39.4934 50.6576C37.137 54.8698 35.9467 59.6177 36.0419 64.4254C36.1371 69.2331 37.5145 73.9317 40.0359 78.0503C42.5574 82.1688 46.1343 85.5626 50.4082 87.8913C54.6821 90.2201 59.5027 91.4021 64.387 91.3188C69.2712 91.2355 74.0474 89.8899 78.2368 87.4168C82.4261 84.9437 85.8815 81.4301 88.2566 77.228C90.6316 73.026 91.8428 68.2833 91.7688 63.4752C91.6948 58.6671 90.3382 53.9626 87.835 49.8334L87.1473 50.2373C89.5786 54.2479 90.8962 58.8172 90.9681 63.4871C91.0399 68.157 89.8635 72.7635 87.5567 76.8448C85.25 80.926 81.8939 84.3387 77.8249 86.7407C73.7559 89.1428 69.117 90.4497 64.3731 90.5306C59.6292 90.6115 54.9471 89.4635 50.7961 87.2016C46.645 84.9398 43.1709 81.6435 40.7219 77.6434C38.2729 73.6432 36.9351 69.0796 36.8426 64.41C36.7501 59.7405 37.9062 55.129 40.1949 51.0379L39.4934 50.6576Z" stroke="#FF005F" stroke-width="1.82882" stroke-dasharray="2.74 2.74" mask="url(#path-8-inside-1_2601_8528)"/>
<path d="M44.5008 49.1051L45.3299 48.2791L42.4458 45.4738L42.85 45.0711C43.1143 44.8078 43.443 44.852 43.658 45.0611C43.873 45.2703 43.9219 45.5933 43.6576 45.8566L43.2533 46.2593L46.2524 47.3601L47.1645 46.4514L44.9074 45.6233C45.0609 45.14 44.9588 44.6325 44.5183 44.2041C43.7998 43.5053 42.7734 43.5987 42.0634 44.3061L40.83 45.5348L44.5008 49.1051Z" fill="#FF005F"/>
<path d="M49.8596 44.7949C50.926 44.0866 51.2162 42.8929 50.3808 41.674L48.7347 39.2725L47.7963 39.8958L49.4423 42.2973C49.889 42.9489 49.7387 43.5317 49.2268 43.8717C48.7515 44.1874 48.1462 44.1064 47.6995 43.4548L46.0535 41.0533L45.0785 41.7008L46.7245 44.1023C47.56 45.3212 48.7932 45.5032 49.8596 44.7949Z" fill="#FF005F"/>
<path d="M52.5846 43.1481L54.2572 42.4841C55.6306 41.9389 56.3716 40.6217 55.7614 39.1324C55.1513 37.6432 53.6894 37.2005 52.3159 37.7457L50.6433 38.4097L52.5846 43.1481ZM53.2565 41.7009L52.1472 38.9932L52.7319 38.7611C53.5478 38.4372 54.2889 38.7411 54.6328 39.5805C54.9767 40.4199 54.6571 41.1449 53.8412 41.4688L53.2565 41.7009Z" fill="#FF005F"/>
<path d="M60.0886 41.0679C61.5464 40.8261 62.5377 39.5939 62.2662 38.0076C61.9946 36.4213 60.6478 35.5769 59.19 35.8187C57.7323 36.0605 56.7409 37.2927 57.0125 38.879C57.284 40.4653 58.6308 41.3097 60.0886 41.0679ZM58.2104 38.6803C58.0574 37.7862 58.5141 37.0728 59.3801 36.9291C60.2461 36.7855 60.9152 37.3122 61.0682 38.2063C61.2213 39.1004 60.7645 39.8138 59.8985 39.9575C59.0325 40.1011 58.3635 39.5744 58.2104 38.6803Z" fill="#FF005F"/>
<path d="M69.5728 41.3382L70.856 41.5591L71.7517 36.5174L70.6414 36.3263L70.067 39.5602L68.7094 35.9937L67.4261 35.7728L66.5305 40.8145L67.6407 41.0057L68.2152 37.7717L69.5728 41.3382Z" fill="#FF005F"/>
<path d="M71.8594 41.9861L74.536 42.9736L74.9265 41.9482L73.348 41.3658L73.7228 40.3813L75.0954 40.8878L75.4859 39.8623L74.1132 39.3559L74.3892 38.6312L75.899 39.1883L76.2895 38.1628L73.6815 37.2006L71.8594 41.9861Z" fill="#FF005F"/>
<path d="M79.0601 45.6131L80.1948 46.337L84.2563 42.8547L83.2264 42.1977L80.4917 44.609L81.7524 41.2574L80.6793 40.5728L78.0951 43.1149L79.1683 39.609L78.1137 38.9362L76.6178 44.0552L77.7773 44.7948L80.3089 42.306L79.0601 45.6131Z" fill="#FF005F"/>
<path d="M82.396 48.6918C82.9883 49.2892 84.0605 49.4357 84.7569 48.7667C86.1812 47.3984 84.1304 46.2649 84.7529 45.6669C84.9112 45.5148 85.1355 45.5021 85.3261 45.6944C85.5166 45.8866 85.535 46.0921 85.407 46.3266L86.2826 47.2097C86.8926 46.3498 86.7669 45.5374 86.1438 44.9088C85.5618 44.3218 84.5679 44.1609 83.8769 44.8248C82.4631 46.183 84.5244 47.3064 83.8808 47.9247C83.7067 48.0919 83.43 48.1244 83.2137 47.9063C82.9974 47.6881 82.9589 47.4207 83.1186 47.1558L82.243 46.2727C81.6332 47.112 81.7059 47.9957 82.396 48.6918Z" fill="#FF005F"/>
</svg>
