<svg width="70" height="70" viewBox="0 0 70 70" fill="none" xmlns="http://www.w3.org/2000/svg">
<path d="M31.9411 41.6155C31.7655 41.5032 31.5944 41.3809 31.4286 41.2497L31.9411 41.6155Z" fill="#FF005F"/>
<path d="M38.4295 41.2497C38.2637 41.3809 38.0925 41.5032 37.9169 41.6155L38.4295 41.2497Z" fill="#FF005F"/>
<path d="M39.5815 43.489C39.9203 43.3208 40.2485 43.135 40.5652 42.9327L39.5815 43.489ZM29.0806 42.9327C29.3973 43.135 29.7255 43.3208 30.0643 43.489L29.0806 42.9327Z" fill="#FF005F"/>
<path d="M45.4441 34.0813C45.4441 28.2709 40.6889 23.5605 34.8232 23.5605C28.9575 23.5605 24.2023 28.2709 24.2023 34.0813C24.2023 34.1186 24.2026 34.1556 24.2029 34.1927H24.1649V40.1541L29.0809 42.9331L30.0647 43.4894L34.7389 46.1316L34.8232 46.1792L34.9076 46.1316L39.5818 43.4894L40.5655 42.9331L45.4441 40.1541V34.1927H45.4436C45.4438 34.1556 45.4441 34.1186 45.4441 34.0813ZM43.1035 34.1927C43.0996 34.4217 43.0858 34.6484 43.063 34.8724V38.8192L39.2404 40.98C39.0311 41.1112 38.8152 41.2335 38.5936 41.3458C38.593 41.3461 38.5927 41.3463 38.5922 41.3463L34.8232 43.4771L31.0543 41.3463C31.0537 41.3463 31.0534 41.3461 31.0529 41.3458C30.8313 41.2335 30.6153 41.1112 30.4061 40.98L26.5834 38.8192V34.8724C26.5606 34.6484 26.5469 34.4217 26.5429 34.1927C26.5418 34.1417 26.5412 34.0907 26.5412 34.0395C26.5412 29.5085 30.2491 25.8356 34.8232 25.8356C39.3973 25.8356 43.1052 29.5085 43.1052 34.0395C43.1052 34.0907 43.1046 34.1417 43.1035 34.1927Z" fill="#FF005F"/>
<path d="M38.7725 35.1868C36.7418 34.9934 35.6777 35.5645 35.6777 33.9744C35.2356 33.9744 34.8922 33.9744 34.8321 33.9744C34.8259 33.9744 34.8228 33.9744 34.8228 33.9744C34.7626 33.9744 34.4192 33.9744 33.9771 33.9744C33.9771 35.5642 32.913 34.9934 30.8823 35.1868C28.8516 35.3801 28.3018 37.6201 28.3018 37.6201L29.756 38.4282C29.756 38.4282 29.8713 37.3916 31.1748 37.3741C32.4757 37.3565 34.0328 37.549 34.8273 36.423C35.6217 37.5487 37.1789 37.3565 38.4798 37.3741C39.7832 37.3916 39.8985 38.4282 39.8985 38.4282L41.3527 37.6201C41.353 37.6201 40.8032 35.3801 38.7725 35.1868Z" fill="#FF005F"/>
<path fill-rule="evenodd" clip-rule="evenodd" d="M35 65.3448C51.8675 65.3448 65.4176 51.6901 65.4176 35C65.4176 18.3099 51.8675 4.65517 35 4.65517C18.1325 4.65517 4.58244 18.3099 4.58244 35C4.58244 51.6901 18.1325 65.3448 35 65.3448ZM35 70C54.33 70 70 54.33 70 35C70 15.67 54.33 0 35 0C15.67 0 0 15.67 0 35C0 54.33 15.67 70 35 70Z" fill="#FF005F"/>
<path fill-rule="evenodd" clip-rule="evenodd" d="M14.1459 24.6612C14.1447 24.6638 14.1434 24.6663 14.1422 24.6688L14.7378 24.9733C14.7391 24.9708 14.7403 24.9683 14.7416 24.9657C14.7987 24.8504 14.8568 24.7356 14.9159 24.6212C14.9481 24.5589 14.9806 24.4968 15.0133 24.4349C15.0721 24.3236 15.1318 24.2129 15.1925 24.1025C15.194 24.0999 15.1954 24.0973 15.1969 24.0947L14.611 23.772C14.5121 23.9516 14.4156 24.1323 14.3217 24.3141C14.2974 24.3611 14.2733 24.4082 14.2493 24.4554C14.2145 24.5238 14.18 24.5925 14.1459 24.6612ZM13.9461 26.7644L13.3258 26.514C13.3249 26.5162 13.3241 26.5185 13.3232 26.5207C13.0774 27.149 12.8593 27.7871 12.6693 28.4331C12.6688 28.435 12.6682 28.4368 12.6677 28.4387L13.3078 28.6328C13.3084 28.6309 13.3089 28.6291 13.3095 28.6272C13.4937 28.0002 13.7052 27.3809 13.9435 26.7711C13.9444 26.7689 13.9452 26.7666 13.9461 26.7644ZM12.837 30.5398L12.1821 30.4038C12.1818 30.4051 12.1815 30.4065 12.1813 30.4078C12.048 31.0699 11.9435 31.7382 11.8682 32.4106C11.8681 32.4114 11.8681 32.4122 11.868 32.413L12.5324 32.4897C12.5325 32.4889 12.5326 32.4881 12.5327 32.4873C12.6057 31.8348 12.707 31.1864 12.8362 30.5438C12.8365 30.5425 12.8367 30.5411 12.837 30.5398ZM12.3992 34.4545L11.7305 34.4378C11.7305 34.438 11.7305 34.4377 11.7305 34.4378C11.7224 34.7758 11.7216 35.1149 11.7282 35.4537C11.7282 35.4536 11.7282 35.4539 11.7282 35.4537C11.7348 35.7926 11.7488 36.1312 11.7701 36.4686C11.7701 36.469 11.7702 36.4694 11.7702 36.4699L12.4377 36.4264C12.4376 36.4259 12.4376 36.4255 12.4376 36.425C12.4169 36.0977 12.4033 35.7695 12.3969 35.4407C12.3969 35.4406 12.3969 35.4408 12.3969 35.4407C12.3905 35.1119 12.3913 34.7824 12.3992 34.4545C12.3992 34.4543 12.3992 34.4547 12.3992 34.4545ZM12.6473 38.3841L11.9865 38.4874C11.9866 38.4885 11.9868 38.4895 11.987 38.4906C12.0884 39.1593 12.2189 39.8228 12.3778 40.479C12.3782 40.4806 12.3786 40.4821 12.3789 40.4837L13.0279 40.3215C13.0275 40.3199 13.0271 40.3184 13.0267 40.3168C12.8726 39.68 12.7462 39.0362 12.6478 38.3872C12.6477 38.3862 12.6475 38.3851 12.6473 38.3841ZM13.5725 42.2081L12.9407 42.4276C12.9414 42.4297 12.942 42.4317 12.9427 42.4337C13.1577 43.0716 13.4004 43.7004 13.6704 44.3183C13.6714 44.3207 13.6725 44.3231 13.6735 44.3255L14.2834 44.0506C14.2823 44.0482 14.2813 44.0458 14.2802 44.0434C14.0184 43.4436 13.783 42.8333 13.5746 42.2142C13.5739 42.2121 13.5732 42.2101 13.5725 42.2081ZM15.1439 45.8087L14.5608 46.1366C14.5623 46.1392 14.5637 46.1418 14.5651 46.1444C14.725 46.4375 14.8913 46.7275 15.0641 47.0142C15.0657 47.0169 15.0673 47.0196 15.0689 47.0223C15.2428 47.3105 15.4227 47.5946 15.6084 47.8743C15.6102 47.877 15.612 47.8797 15.6138 47.8825L16.1657 47.5044C16.1639 47.5016 16.1621 47.4989 16.1603 47.4962C15.9801 47.2246 15.8057 46.9488 15.637 46.669C15.6354 46.6663 15.6338 46.6636 15.6322 46.6609C15.4646 46.3826 15.3032 46.1011 15.1482 45.8165C15.1468 45.8139 15.1453 45.8113 15.1439 45.8087ZM17.3223 49.0922L16.8059 49.5174C16.808 49.5201 16.8102 49.5228 16.8123 49.5255C17.2332 50.0524 17.6763 50.5603 18.1404 51.0478C18.1428 51.0504 18.1452 51.0529 18.1476 51.0554L18.6248 50.5866C18.6224 50.5841 18.62 50.5816 18.6176 50.579C18.1672 50.1054 17.7371 49.6121 17.3287 49.1002C17.3266 49.0976 17.3245 49.0949 17.3223 49.0922ZM20.0357 51.9457L19.601 52.4542C19.6036 52.4565 19.6062 52.4588 19.6088 52.4611C20.1124 52.905 20.6353 53.3272 21.1763 53.7266C21.179 53.7286 21.1817 53.7305 21.1844 53.7325L21.5736 53.1884C21.5709 53.1864 21.5682 53.1845 21.5655 53.1825C21.0402 52.7943 20.5324 52.384 20.0435 51.9526C20.0409 51.9503 20.0383 51.948 20.0357 51.9457ZM23.1951 54.2803L22.854 54.8558C22.8567 54.8574 22.8593 54.859 22.862 54.8606C23.1464 55.0345 23.4349 55.2024 23.7273 55.3642C23.7299 55.3657 23.7325 55.3671 23.735 55.3685C24.0293 55.5313 24.3267 55.6874 24.627 55.8369C24.6295 55.8381 24.632 55.8394 24.6345 55.8406L24.9251 55.2381C24.9226 55.2369 24.9201 55.2356 24.9177 55.2344C24.626 55.0891 24.3371 54.9373 24.0512 54.779C24.0487 54.7776 24.0461 54.7762 24.0435 54.7747C23.7595 54.6174 23.4793 54.4541 23.203 54.2852C23.2004 54.2835 23.1977 54.2819 23.1951 54.2803ZM26.7206 56.0365L26.4825 56.6616C26.4847 56.6625 26.4869 56.6633 26.4891 56.6642C27.1171 56.9109 27.755 57.13 28.4009 57.321C28.4028 57.3215 28.4046 57.322 28.4064 57.3226L28.5906 56.6795C28.5888 56.679 28.587 56.6784 28.5852 56.6779C27.9575 56.4922 27.3375 56.2791 26.7272 56.0391C26.725 56.0383 26.7228 56.0374 26.7206 56.0365ZM30.4972 57.1541L30.3681 57.8104C30.3694 57.8107 30.3707 57.811 30.3721 57.8113C31.0323 57.9452 31.6987 58.0505 32.3693 58.1268C32.3701 58.1269 32.3709 58.127 32.3716 58.1271L32.4449 57.4622C32.4441 57.4621 32.4434 57.462 32.4426 57.4619C31.7907 57.3877 31.143 57.2852 30.5012 57.1549C30.4999 57.1547 30.4985 57.1544 30.4972 57.1541ZM34.4068 57.5992L34.3898 58.2679C34.3896 58.2679 34.39 58.2679 34.3898 58.2679C34.7266 58.2767 35.0646 58.2783 35.4024 58.2724C35.4023 58.2724 35.4025 58.2724 35.4024 58.2724C35.74 58.2666 36.0773 58.2534 36.4134 58.2329C36.4138 58.2329 36.4142 58.2329 36.4147 58.2328L36.3752 57.5651C36.3748 57.5651 36.3744 57.5652 36.374 57.5652C36.0472 57.5851 35.7197 57.5979 35.3915 57.6036C35.3914 57.6036 35.3916 57.6036 35.3915 57.6036C35.0631 57.6093 34.7342 57.6078 34.4068 57.5992C34.407 57.5992 34.4066 57.5992 34.4068 57.5992ZM38.3302 57.3603L38.4257 58.0224C38.4267 58.0222 38.4277 58.0221 38.4287 58.0219C39.0961 57.9225 39.7581 57.7942 40.4131 57.6376C40.4146 57.6372 40.4161 57.6369 40.4177 57.6365L40.2665 56.9849C40.265 56.9853 40.2635 56.9856 40.262 56.986C39.6254 57.1384 38.9818 57.2632 38.3332 57.3599C38.3322 57.36 38.3312 57.3602 38.3302 57.3603ZM42.155 56.4447L42.3608 57.0812C42.3628 57.0806 42.3647 57.0799 42.3667 57.0793C43.0055 56.8661 43.6354 56.6251 44.2544 56.3569C44.2567 56.3559 44.2591 56.3549 44.2614 56.3539L44.0022 55.7372C43.9999 55.7382 43.9976 55.7392 43.9952 55.7402C43.3937 56.0011 42.7817 56.2355 42.1609 56.4428C42.159 56.4434 42.157 56.4441 42.155 56.4447ZM45.7688 54.8771L46.0798 55.4694C46.0823 55.468 46.0849 55.4667 46.0875 55.4653C46.3823 55.3055 46.6741 55.1392 46.9625 54.9664C46.9652 54.9648 46.9678 54.9632 46.9705 54.9616C47.257 54.7898 47.5394 54.612 47.8175 54.4285C47.8202 54.4268 47.8229 54.425 47.8256 54.4232L47.465 53.8598C47.4623 53.8615 47.4597 53.8633 47.457 53.8651C47.1869 54.0434 46.9126 54.2162 46.6344 54.3832C46.6317 54.3848 46.6291 54.3864 46.6264 54.388C46.3463 54.556 46.0629 54.7177 45.7765 54.873C45.774 54.8744 45.7714 54.8758 45.7688 54.8771ZM49.0475 52.7126L49.4551 53.243C49.4578 53.2409 49.4604 53.2388 49.4631 53.2366C49.99 52.8188 50.498 52.3787 50.9858 51.9177C50.9884 51.9153 50.9909 51.9129 50.9934 51.9105L50.5415 51.4173C50.5389 51.4197 50.5364 51.4221 50.5338 51.4245C50.0602 51.8725 49.567 52.3001 49.0555 52.7062C49.0528 52.7083 49.0501 52.7104 49.0475 52.7126ZM51.9044 50.0102L52.3976 50.4621C52.3999 50.4595 52.4022 50.4569 52.4046 50.4543C52.8515 49.9509 53.2768 49.4279 53.6792 48.8867C53.6812 48.884 53.6832 48.8813 53.6852 48.8786L53.1543 48.4716C53.1523 48.4743 53.1503 48.477 53.1483 48.4798C52.7578 49.0054 52.3451 49.5134 51.9113 50.0023C51.909 50.0049 51.9067 50.0076 51.9044 50.0102ZM54.2553 46.8445L54.8201 47.203C54.8218 47.2004 54.8234 47.1977 54.8251 47.195C55.001 46.9089 55.171 46.6187 55.3349 46.3245C55.3363 46.3219 55.3378 46.3192 55.3393 46.3166C55.5021 46.0239 55.6584 45.7281 55.8081 45.4295C55.8094 45.4269 55.8106 45.4244 55.8119 45.4218L55.2176 45.1147C55.2164 45.1173 55.2151 45.1198 55.2138 45.1223C55.0687 45.4122 54.9171 45.6994 54.7591 45.9835C54.7577 45.9861 54.7562 45.9888 54.7548 45.9914C54.5958 46.277 54.431 46.5587 54.2603 46.8365C54.2587 46.8392 54.257 46.8419 54.2553 46.8445ZM56.0171 43.3272L56.6363 43.5804C56.6372 43.5781 56.6381 43.5758 56.639 43.5736C56.8874 42.9464 57.1083 42.3093 57.3011 41.6641C57.3016 41.6623 57.3022 41.6604 57.3028 41.6585L56.6635 41.4616C56.6629 41.4634 56.6624 41.4653 56.6618 41.4672C56.4749 42.0933 56.2607 42.7117 56.0198 43.3204C56.0189 43.3227 56.018 43.3249 56.0171 43.3272ZM57.1426 39.5567L57.7969 39.6956C57.7972 39.6943 57.7975 39.6929 57.7978 39.6915C57.9339 39.03 58.0413 38.3623 58.1195 37.6902C58.1196 37.6894 58.1197 37.6885 58.1198 37.6877L57.4557 37.6081C57.4556 37.6089 57.4555 37.6097 57.4554 37.6105C57.3796 38.2627 57.2754 38.9106 57.1435 39.5525C57.1432 39.5539 57.1429 39.5553 57.1426 39.5567ZM57.5974 35.6439L58.266 35.6635C58.266 35.6637 58.266 35.6633 58.266 35.6635C58.2757 35.3256 58.2779 34.9864 58.2728 34.6475C58.2728 34.6474 58.2728 34.6476 58.2728 34.6475C58.2677 34.3086 58.2551 33.97 58.2353 33.6325C58.2352 33.6321 58.2352 33.6317 58.2352 33.6313L57.5675 33.6718C57.5676 33.6723 57.5676 33.6727 57.5676 33.6731C57.5869 34.0005 57.599 34.3288 57.604 34.6576C57.604 34.6575 57.604 34.6577 57.604 34.6576C57.609 34.9865 57.6068 35.316 57.5974 35.6439C57.5974 35.6437 57.5974 35.6441 57.5974 35.6439ZM57.3664 31.7132L58.0277 31.6128C58.0275 31.6118 58.0274 31.6108 58.0273 31.6097C57.9287 30.9405 57.8012 30.2765 57.6451 29.6196C57.6447 29.618 57.6443 29.6165 57.644 29.6149L56.9943 29.7742C56.9947 29.7758 56.995 29.7773 56.9954 29.7789C57.1467 30.4164 57.2704 31.0607 57.3659 31.7101C57.3661 31.7112 57.3662 31.7122 57.3664 31.7132ZM56.4578 27.8852L57.0907 27.6685C57.09 27.6665 57.0893 27.6645 57.0886 27.6624C56.8765 27.0236 56.6364 26.3937 56.3692 25.7746C56.3681 25.7722 56.3671 25.7699 56.3661 25.7675L55.7551 26.0397C55.7561 26.0421 55.7571 26.0445 55.7581 26.0468C56.0173 26.6478 56.2501 27.2592 56.4558 27.8792C56.4565 27.8812 56.4572 27.8832 56.4578 27.8852ZM54.9021 24.2778L55.4866 23.9525C55.4852 23.9499 55.4838 23.9473 55.4824 23.9447C55.446 23.8772 55.4092 23.8099 55.3721 23.7427C55.3508 23.7041 55.3293 23.6655 55.3077 23.627C55.2035 23.4409 55.0967 23.2561 54.9872 23.0727C54.9872 23.0727 54.9872 23.0727 54.9872 23.0727L54.4128 23.4153C54.4144 23.418 54.416 23.4207 54.4176 23.4234C54.482 23.5314 54.5454 23.6399 54.6079 23.7488C54.647 23.817 54.6858 23.8853 54.7241 23.9538C54.7829 24.0588 54.8408 24.1642 54.8979 24.27C54.8993 24.2726 54.9007 24.2752 54.9021 24.2778Z" fill="#FF005F"/>
<path d="M19.6303 23.1842L20.4529 22.3516L17.5909 19.5237L17.992 19.1178C18.2542 18.8525 18.5803 18.8971 18.7937 19.1079C19.007 19.3187 19.0555 19.6443 18.7933 19.9096L18.3923 20.3155L21.3681 21.4253L22.273 20.5095L20.0334 19.6746C20.1856 19.1874 20.0843 18.676 19.6472 18.2441C18.9343 17.5397 17.9158 17.6337 17.2114 18.3466L15.9877 19.5851L19.6303 23.1842Z" fill="#FF005F"/>
<path d="M24.2384 19.4777C25.2997 18.7617 25.5912 17.559 24.7648 16.3341L23.1363 13.9206L22.2025 14.5506L23.8309 16.9641C24.2728 17.6191 24.1218 18.2063 23.6124 18.5499C23.1394 18.8691 22.5384 18.7892 22.0966 18.1343L20.4682 15.7208L19.4979 16.3754L21.1263 18.7889C21.9528 20.0139 23.1772 20.1938 24.2384 19.4777Z" fill="#FF005F"/>
<path d="M26.0131 18.3695L27.682 17.6964C29.0525 17.1438 29.7958 15.8186 29.1939 14.326C28.592 12.8334 27.1373 12.3947 25.7668 12.9474L24.0979 13.6204L26.0131 18.3695ZM26.6882 16.9141L25.5938 14.2003L26.1772 13.965C26.9913 13.6367 27.7285 13.9389 28.0677 14.7802C28.407 15.6214 28.0857 16.3505 27.2716 16.6788L26.6882 16.9141Z" fill="#FF005F"/>
<path d="M32.4592 16.6203C33.9163 16.3748 34.9099 15.1391 34.6425 13.5522C34.3751 11.9652 33.0314 11.1233 31.5743 11.3689C30.1171 11.6144 29.1236 12.8501 29.391 14.4371C29.6584 16.024 31.002 16.8659 32.4592 16.6203ZM30.5884 14.2353C30.4377 13.3408 30.8959 12.6256 31.7615 12.4798C32.6271 12.3339 33.2943 12.8595 33.445 13.7539C33.5958 14.6484 33.1376 15.3636 32.272 15.5095C31.4064 15.6553 30.7392 15.1298 30.5884 14.2353Z" fill="#FF005F"/>
<path d="M40.1218 17.012L41.4045 17.2363L42.2866 12.1922L41.1768 11.9981L40.6111 15.2336L39.2457 11.6604L37.963 11.4361L37.0809 16.4802L38.1907 16.6743L38.7564 13.4388L40.1218 17.012Z" fill="#FF005F"/>
<path d="M41.3347 17.4436L44.0061 18.4449L44.3913 17.4174L42.8158 16.8269L43.1855 15.8405L44.5555 16.354L44.9406 15.3265L43.5706 14.813L43.8427 14.0869L45.3497 14.6517L45.7348 13.6242L43.1319 12.6486L41.3347 17.4436Z" fill="#FF005F"/>
<path d="M47.6786 20.8022L48.8082 21.5342L52.833 18.0406L51.8078 17.3762L49.098 19.7956L50.3406 16.4254L49.2725 15.7332L46.7125 18.2845L47.7684 14.7585L46.7187 14.0782L45.2476 19.2268L46.4017 19.9747L48.9096 17.4768L47.6786 20.8022Z" fill="#FF005F"/>
<path d="M49.8598 23.1156C50.4473 23.7177 51.5112 23.8651 52.2023 23.1907C53.6158 21.8112 51.5812 20.669 52.1989 20.0661C52.356 19.9129 52.5786 19.9001 52.7676 20.0938C52.9567 20.2875 52.9748 20.4946 52.8478 20.731L53.7164 21.621C54.3219 20.7542 54.1973 19.9353 53.5791 19.3018C53.0018 18.7102 52.0157 18.5482 51.3299 19.2175C49.9268 20.5868 51.9719 21.7188 51.3332 22.3421C51.1604 22.5107 50.8858 22.5436 50.6712 22.3237C50.4567 22.1038 50.4186 21.8343 50.577 21.5673L49.7084 20.6773C49.1032 21.5234 49.1751 22.4141 49.8598 23.1156Z" fill="#FF005F"/>
</svg>
